<!DOCTYPE svg PUBLIC "-//W3C//DTD SVG 1.1//EN" "http://www.w3.org/Graphics/SVG/1.1/DTD/svg11.dtd">
<svg xmlns="http://www.w3.org/2000/svg"  viewBox="0 0 512 512" style="enable-background:new 0 0 512 512;" width="512px" height="512px">
<g>
	<path d="M328,120H184c-8.822,0-16,7.178-16,16v264c0,8.822,7.178,16,16,16h144c8.822,0,16-7.178,16-16V136   C344,127.178,336.822,120,328,120z M224,360v-24h64v24H224z M288,376v24h-64v-24H288z M288,176v24h-64v-24H288z M224,160v-24h64v24   H224z M224,240v-24h64v24H224z M288,256v24h-64v-24H288z M208,240h-24v-24h24V240z M208,256v24h-24v-24H208z M208,296v24h-24v-24   H208z M224,296h64v24h-64V296z M304,296h24v24h-24V296z M304,280v-24h24v24H304z M304,240v-24h24v24H304z M304,200v-24h24v24H304z    M208,200h-24v-24h24V200z M184,336h24v24h-24V336z M304,336h24v24h-24V336z M328,160h-24v-24h24V160z M208,136v24h-24v-24H208z    M184,376h24v24h-24V376z M304,400v-24h24v24H304z" fill="#FFFFFF"/>
	<path d="M336,72c0-4.418-3.582-8-8-8H184c-4.418,0-8,3.582-8,8s3.582,8,8,8h144C332.418,80,336,76.418,336,72z" fill="#FFFFFF"/>
	<path d="M384,496h-8V104c0-5.907-3.226-11.063-8-13.835V55.69c9.075-1.594,16-9.514,16-19.039c0-2.67-1.332-5.164-3.551-6.648   C352.377,11.216,305.854,0,256,0s-96.377,11.216-124.449,30.002C129.332,31.487,128,33.98,128,36.65   c0,9.525,6.925,17.446,16,19.039v34.475c-4.774,2.772-8,7.928-8,13.835v392h-8c-4.418,0-8,3.582-8,8s3.582,8,8,8h256   c4.418,0,8-3.582,8-8S388.418,496,384,496z M152,104h152.002c4.418,0,8-3.582,8-8s-3.582-8-8-8H160V56h143.997c4.418,0,8-3.582,8-8   s-3.582-8-8-8H147.35c-0.428,0-0.837-0.081-1.213-0.228C172.128,24.811,212.503,16,256,16s83.872,8.811,109.864,23.772   C365.487,39.919,365.078,40,364.65,40H336c-4.418,0-8,3.582-8,8s3.582,8,8,8h16v32h-16c-4.418,0-8,3.582-8,8s3.582,8,8,8h24v392   H152V104z" fill="#FFFFFF"/>
</g>
</svg>
